<svg xmlns="http://www.w3.org/2000/svg" width="227.491" height="99" viewBox="0 0 227.491 99">
  <g id="g12" transform="translate(-266.596 755.865)">
    <g id="Grupo_85" data-name="Grupo 85" transform="translate(266.596 -755.865)">
      <g id="g20" transform="translate(71.487 41.482)">
        <path id="path22" d="M-38.087-44.9a8.12,8.12,0,0,0-.649-3.219,8.7,8.7,0,0,0-1.774-2.664A8.384,8.384,0,0,0-43.135-52.6a7.865,7.865,0,0,0-3.224-.663,7.93,7.93,0,0,0-3.252.664,8.434,8.434,0,0,0-2.618,1.8,8.473,8.473,0,0,0-1.754,2.66,8.223,8.223,0,0,0-.65,3.238,8.22,8.22,0,0,0,.65,3.237A8.461,8.461,0,0,0-52.23-39a8.427,8.427,0,0,0,2.618,1.8,7.938,7.938,0,0,0,3.252.664,7.849,7.849,0,0,0,3.224-.664,8.374,8.374,0,0,0,2.626-1.813,8.7,8.7,0,0,0,1.774-2.664,8.119,8.119,0,0,0,.649-3.219m0-12.385V-68.8a3.2,3.2,0,0,1,.919-2.333,3.155,3.155,0,0,1,2.317-.929,3.2,3.2,0,0,1,2.3.922,3.173,3.173,0,0,1,.953,2.348v23.9a14.344,14.344,0,0,1-4.33,10.548A14.283,14.283,0,0,1-46.36-29.982,14.175,14.175,0,0,1-56.8-34.354,14.47,14.47,0,0,1-61.124-44.9,14.469,14.469,0,0,1-56.8-55.444,14.172,14.172,0,0,1-46.36-59.817a14.212,14.212,0,0,1,8.273,2.533" transform="translate(61.124 72.057)" fill="#fff" fill-rule="evenodd"/>
      </g>
      <g id="g24" transform="translate(203.249 53.722)">
        <path id="path26" d="M0-15.035a6.928,6.928,0,0,1,1.12-3.85,9.917,9.917,0,0,1,2.835-2.841A14.025,14.025,0,0,1,7.832-23.5a15.325,15.325,0,0,1,4.3-.626,14.577,14.577,0,0,1,11.29,5.349l.01.012.01.012a3.121,3.121,0,0,1,.669,2,3.2,3.2,0,0,1-.93,2.333,3.134,3.134,0,0,1-2.311.937,2.734,2.734,0,0,1-1.747-.594,13.19,13.19,0,0,1-1.153-1.05,7.869,7.869,0,0,0-5.838-2.436c-1.377,0-5.616.878-5.616,2.762a.345.345,0,0,0,.251.391L18.6-10.477l.014.006A10.489,10.489,0,0,1,22.173-8.44a6.646,6.646,0,0,1,2.069,5.051,6.916,6.916,0,0,1-1.13,3.86,10.136,10.136,0,0,1-2.835,2.847A13.55,13.55,0,0,1,16.413,5.1a15.446,15.446,0,0,1-4.281.608A14.522,14.522,0,0,1,.837.409L.818.391.8.371A3.34,3.34,0,0,1,.121-1.662a3.2,3.2,0,0,1,.93-2.333,3.135,3.135,0,0,1,2.31-.938,2.7,2.7,0,0,1,1.809.644c.372.322.744.648,1.092,1A7.927,7.927,0,0,0,12.133-.852a7.081,7.081,0,0,0,5.359-2.1.9.9,0,0,0,.223-.635.388.388,0,0,0-.284-.42L5.634-7.947l-.014,0a10.633,10.633,0,0,1-3.552-2.02A6.5,6.5,0,0,1,0-15.035" transform="translate(0 24.129)" fill="#fff" fill-rule="evenodd"/>
      </g>
      <g id="g28" transform="translate(173.161 53.722)">
        <path id="path30" d="M-24.406-10.841a7.924,7.924,0,0,0-3.25.664,8.4,8.4,0,0,0-2.617,1.8,8.457,8.457,0,0,0-1.757,2.66,8.23,8.23,0,0,0-.646,3.238A8.228,8.228,0,0,0-32.03.757a8.457,8.457,0,0,0,1.757,2.66,8.411,8.411,0,0,0,2.617,1.8,7.939,7.939,0,0,0,3.25.663,7.852,7.852,0,0,0,3.226-.663A8.408,8.408,0,0,0-18.553,3.4,8.726,8.726,0,0,0-16.778.738a8.125,8.125,0,0,0,.646-3.219A8.126,8.126,0,0,0-16.778-5.7a8.726,8.726,0,0,0-1.775-2.664,8.416,8.416,0,0,0-2.627-1.814,7.86,7.86,0,0,0-3.226-.663M-9.643-2.483A14.3,14.3,0,0,1-13.97,8.066a14.286,14.286,0,0,1-10.436,4.37A14.172,14.172,0,0,1-34.841,8.064,14.472,14.472,0,0,1-39.168-2.481a14.472,14.472,0,0,1,4.327-10.545A14.17,14.17,0,0,1-24.406-17.4a14.245,14.245,0,0,1,10.436,4.37,14.6,14.6,0,0,1,3.23,4.821,15.166,15.166,0,0,1,1.1,5.724" transform="translate(39.168 17.399)" fill="#fff" fill-rule="evenodd"/>
      </g>
      <g id="g32" transform="translate(131.619 53.722)">
        <path id="path34" d="M-33.876-6.21a11.465,11.465,0,0,1,8.609-3.756,11.378,11.378,0,0,1,4.607.957,12.133,12.133,0,0,1,3.776,2.578,12.232,12.232,0,0,1,2.552,3.816,11.724,11.724,0,0,1,.946,4.654V16.572a3.214,3.214,0,0,1-.955,2.343,3.145,3.145,0,0,1-2.29.954,3.14,3.14,0,0,1-2.31-.957,3.234,3.234,0,0,1-.935-2.34V2.039a5.286,5.286,0,0,0-.417-2.087,5.623,5.623,0,0,0-1.143-1.739,5.428,5.428,0,0,0-1.718-1.185,5.16,5.16,0,0,0-2.1-.437,5.034,5.034,0,0,0-2.076.437A5.648,5.648,0,0,0-29.052-1.8,5.413,5.413,0,0,0-30.207-.074a5.356,5.356,0,0,0-.417,2.114V16.572a3.227,3.227,0,0,1-.945,2.341,3.126,3.126,0,0,1-2.283.956H-33.9a3.124,3.124,0,0,1-2.283-.956,3.228,3.228,0,0,1-.946-2.341V2.039a5.356,5.356,0,0,0-.417-2.114A5.406,5.406,0,0,0-38.7-1.8a5.638,5.638,0,0,0-1.716-1.174,5.038,5.038,0,0,0-2.076-.437,5.162,5.162,0,0,0-2.105.437,5.425,5.425,0,0,0-1.718,1.185A5.6,5.6,0,0,0-47.459-.048a5.286,5.286,0,0,0-.417,2.087V16.572a3.234,3.234,0,0,1-.935,2.34,3.141,3.141,0,0,1-2.311.957,3.144,3.144,0,0,1-2.29-.954,3.211,3.211,0,0,1-.956-2.343V2.039a11.725,11.725,0,0,1,.947-4.654,12.256,12.256,0,0,1,2.552-3.816,12.135,12.135,0,0,1,3.776-2.578,11.376,11.376,0,0,1,4.607-.957A11.464,11.464,0,0,1-33.876-6.21" transform="translate(54.367 9.967)" fill="#fff" fill-rule="evenodd"/>
      </g>
      <g id="g36" transform="translate(101.567 53.722)">
        <path id="path38" d="M-37.8-20.8a7.03,7.03,0,0,0-2.252-3.8,8.494,8.494,0,0,0-2.626-1.605,8.741,8.741,0,0,0-3.225-.587,8.815,8.815,0,0,0-3.251.587,8.541,8.541,0,0,0-2.619,1.591A8.939,8.939,0,0,0-54.139-20.8Zm.992,14.092a14.056,14.056,0,0,1-9.094,3.159A14.162,14.162,0,0,1-56.343-7.926,14.491,14.491,0,0,1-60.671-18.47a14.494,14.494,0,0,1,4.327-10.545,14.161,14.161,0,0,1,10.437-4.372,14.274,14.274,0,0,1,10.434,4.379,14.287,14.287,0,0,1,4.33,9.627,3.162,3.162,0,0,1-.961,2.34,3.2,3.2,0,0,1-2.3.93h-3.4l0-.022H-54.139a8.94,8.94,0,0,0,2.362,3.814,8.55,8.55,0,0,0,2.619,1.591,8.815,8.815,0,0,0,3.251.587,8.741,8.741,0,0,0,3.225-.587,8.679,8.679,0,0,0,2.148-1.205c3.548-2.744,7.421,2.226,3.721,5.221" transform="translate(60.671 33.388)" fill="#fff" fill-rule="evenodd"/>
      </g>
      <g id="g40" transform="translate(41.406 53.722)">
        <path id="path42" d="M-24.409-10.841a7.922,7.922,0,0,0-3.251.664,8.433,8.433,0,0,0-2.619,1.8,8.463,8.463,0,0,0-1.753,2.66,8.225,8.225,0,0,0-.65,3.238,8.222,8.222,0,0,0,.65,3.238,8.463,8.463,0,0,0,1.753,2.66,8.449,8.449,0,0,0,2.619,1.8,7.938,7.938,0,0,0,3.251.663,7.859,7.859,0,0,0,3.225-.663A8.373,8.373,0,0,0-18.559,3.4,8.676,8.676,0,0,0-16.785.738a8.111,8.111,0,0,0,.649-3.219A8.111,8.111,0,0,0-16.785-5.7a8.676,8.676,0,0,0-1.774-2.664,8.381,8.381,0,0,0-2.625-1.814,7.867,7.867,0,0,0-3.225-.663M-9.645-2.483a14.311,14.311,0,0,1-4.33,10.55,14.283,14.283,0,0,1-10.434,4.37A14.176,14.176,0,0,1-34.846,8.064,14.47,14.47,0,0,1-39.173-2.481a14.47,14.47,0,0,1,4.327-10.545A14.174,14.174,0,0,1-24.409-17.4a14.251,14.251,0,0,1,10.434,4.37,14.6,14.6,0,0,1,3.231,4.821,15.168,15.168,0,0,1,1.1,5.724" transform="translate(39.173 17.399)" fill="#fff" fill-rule="evenodd"/>
      </g>
      <g id="g44" transform="translate(11.325 53.722)">
        <path id="path46" d="M-10.731-24.663a8.22,8.22,0,0,0,.65,3.237,8.46,8.46,0,0,0,1.753,2.66,8.42,8.42,0,0,0,2.619,1.8,7.93,7.93,0,0,0,3.251.664,7.854,7.854,0,0,0,3.225-.664,8.365,8.365,0,0,0,2.625-1.813,8.678,8.678,0,0,0,1.774-2.664,8.119,8.119,0,0,0,.649-3.219,8.12,8.12,0,0,0-.649-3.219,8.686,8.686,0,0,0-1.774-2.664A8.382,8.382,0,0,0,.768-32.36a7.852,7.852,0,0,0-3.225-.663,7.921,7.921,0,0,0-3.251.663,8.427,8.427,0,0,0-2.619,1.8A8.471,8.471,0,0,0-10.08-27.9a8.224,8.224,0,0,0-.65,3.238m0,12.392V2.256a3.167,3.167,0,0,1-.953,2.34,3.2,3.2,0,0,1-2.3.921A3.149,3.149,0,0,1-16.3,4.588a3.218,3.218,0,0,1-.92-2.341v-26.92a14.46,14.46,0,0,1,4.328-10.545A14.175,14.175,0,0,1-2.458-39.581a14.283,14.283,0,0,1,10.434,4.37,14.514,14.514,0,0,1,3.249,4.805,15.112,15.112,0,0,1,1.081,5.743,14.357,14.357,0,0,1-4.33,10.548,14.905,14.905,0,0,1-4.812,3.286A14.6,14.6,0,0,1-2.458-9.746a14.132,14.132,0,0,1-8.273-2.525" transform="translate(17.221 39.581)" fill="#fff" fill-rule="evenodd"/>
      </g>
      <g id="g48" transform="translate(222.303 90.494)">
        <path id="path50" d="M0-13.487a.228.228,0,0,0,.228.228H4.491a.225.225,0,0,0,.228-.228v-.659a.226.226,0,0,0-.228-.228H1.246v-7.044a.235.235,0,0,0-.228-.228H.228A.228.228,0,0,0,0-21.418Z" transform="translate(0 21.645)" fill="#fff" fill-rule="evenodd"/>
      </g>
      <g id="g52" transform="translate(219.403 90.494)">
        <path id="path54" d="M0-13.487a.235.235,0,0,0,.228.228h.79a.235.235,0,0,0,.228-.228v-7.93a.235.235,0,0,0-.228-.228H.228A.235.235,0,0,0,0-21.418Z" transform="translate(0 21.645)" fill="#fff" fill-rule="evenodd"/>
      </g>
      <g id="g56" transform="translate(212.37 90.374)">
        <path id="path58" d="M-.214-12.7a3.894,3.894,0,0,0,2.575.946,2.447,2.447,0,0,0,2.673-2.265c0-1.461-1.185-2.12-2.575-2.683-.994-.407-1.52-.826-1.52-1.509,0-.444.348-1.078,1.352-1.078a3.69,3.69,0,0,1,1.618.6.283.283,0,0,0,.419-.12c.1-.143.2-.311.3-.455a.286.286,0,0,0-.074-.408,4.06,4.06,0,0,0-2.217-.707A2.34,2.34,0,0,0-.284-18.158c0,1.39.958,2.025,2.18,2.539,1.185.491,1.809.947,1.809,1.666A1.205,1.205,0,0,1,2.351-12.84a3.488,3.488,0,0,1-1.915-.827.273.273,0,0,0-.41.1c-.107.156-.2.336-.311.491a.251.251,0,0,0,.07.383" transform="translate(0.344 20.375)" fill="#fff" fill-rule="evenodd"/>
      </g>
      <g id="g60" transform="translate(203.742 90.374)">
        <path id="path62" d="M-4.058-9.348l1.464-3.282h.06l1.474,3.282ZM-6.285-6.5h.753a.308.308,0,0,0,.279-.18c.237-.551.488-1.09.73-1.641H-.6L.135-6.677a.286.286,0,0,0,.278.18h.753a.212.212,0,0,0,.205-.312L-2.282-14.87A.282.282,0,0,0-2.487-15h-.12a.283.283,0,0,0-.205.132L-6.489-6.808a.212.212,0,0,0,.2.312" transform="translate(6.512 15.003)" fill="#fff" fill-rule="evenodd"/>
      </g>
      <g id="g64" transform="translate(196.56 90.494)">
        <path id="path66" d="M-2.075-6.734V-9.645H.059A1.465,1.465,0,0,1,1.519-8.22,1.485,1.485,0,0,1,.059-6.734ZM-3.329-2.649a.225.225,0,0,0,.228.228h.776A.235.235,0,0,0-2.1-2.649V-5.7H-.289L1.305-2.529a.22.22,0,0,0,.19.108H2.43a.227.227,0,0,0,.2-.348L.993-5.812A2.657,2.657,0,0,0,2.765-8.243,2.582,2.582,0,0,0,.157-10.807H-3.1a.225.225,0,0,0-.228.228Z" transform="translate(3.329 10.807)" fill="#fff" fill-rule="evenodd"/>
      </g>
      <g id="g68" transform="translate(189.248 90.494)">
        <path id="path70" d="M-2.021-6.021V-8.536H-.4A1.155,1.155,0,0,1,.828-7.3,1.2,1.2,0,0,1-.4-6.021Zm-.014,3.642V-4.942H-.39A1.378,1.378,0,0,1,1.084-3.685a1.28,1.28,0,0,1-1.3,1.306ZM-3.244-1.5a.229.229,0,0,0,.228.228H-.2A2.4,2.4,0,0,0,2.413-3.589a2.169,2.169,0,0,0-1.5-1.952A2.3,2.3,0,0,0,2.158-7.447,2.3,2.3,0,0,0-.334-9.663H-3.016a.229.229,0,0,0-.228.228Z" transform="translate(3.244 9.663)" fill="#fff" fill-rule="evenodd"/>
      </g>
      <g id="g72" transform="translate(177.325 90.314)">
        <path id="path74" d="M-1.982-7.15a3.137,3.137,0,0,1,3.1-3.127A3.14,3.14,0,0,1,4.232-7.15a3.112,3.112,0,0,1-3.114,3.1,3.109,3.109,0,0,1-3.1-3.1m-1.2,0a4.275,4.275,0,0,0,4.3,4.3,4.284,4.284,0,0,0,4.314-4.3,4.3,4.3,0,0,0-4.314-4.325,4.3,4.3,0,0,0-4.3,4.325" transform="translate(3.181 11.475)" fill="#fff" fill-rule="evenodd"/>
      </g>
      <g id="g76" transform="translate(167.917 90.494)">
        <path id="path78" d="M-2.08-6.734V-9.645H.052A1.468,1.468,0,0,1,1.513-8.22,1.488,1.488,0,0,1,.052-6.734ZM-3.339-2.649a.227.227,0,0,0,.228.228h.779A.235.235,0,0,0-2.1-2.649V-5.7H-.3L1.3-2.529a.22.22,0,0,0,.192.108h.935a.227.227,0,0,0,.2-.348L.987-5.812A2.659,2.659,0,0,0,2.759-8.243,2.585,2.585,0,0,0,.148-10.807H-3.111a.227.227,0,0,0-.228.228Z" transform="translate(3.339 10.807)" fill="#fff" fill-rule="evenodd"/>
      </g>
      <g id="g80" transform="translate(158.825 90.374)">
        <path id="path82" d="M-4.06-9.348-2.6-12.631h.06l1.474,3.282ZM-6.289-6.5h.755a.3.3,0,0,0,.275-.18c.24-.551.491-1.09.731-1.641H-.61L.133-6.677a.278.278,0,0,0,.275.18h.755a.212.212,0,0,0,.2-.312L-2.287-14.87a.279.279,0,0,0-.2-.132h-.12a.282.282,0,0,0-.2.132L-6.493-6.808a.212.212,0,0,0,.2.312" transform="translate(6.516 15.003)" fill="#fff" fill-rule="evenodd"/>
      </g>
      <g id="g84" transform="translate(150.926 90.494)">
        <path id="path86" d="M-2.021-11.982v-6.109H-.44A2.946,2.946,0,0,1,2.6-15.049,2.959,2.959,0,0,1-.44-11.982Zm-1.222.911a.226.226,0,0,0,.216.228H-.272a4.21,4.21,0,0,0,4.205-4.205A4.205,4.205,0,0,0-.272-19.229H-3.027A.226.226,0,0,0-3.243-19Z" transform="translate(3.243 19.229)" fill="#fff" fill-rule="evenodd"/>
      </g>
      <g id="g88" transform="translate(142.753 90.494)">
        <path id="path90" d="M0-8.7A3.176,3.176,0,0,0,3.247-5.449,3.188,3.188,0,0,0,6.517-8.7v-5.032a.236.236,0,0,0-.228-.228h-.8a.227.227,0,0,0-.227.228v4.972A1.976,1.976,0,0,1,3.247-6.647,1.977,1.977,0,0,1,1.258-8.779v-4.948a.227.227,0,0,0-.228-.228h-.8A.236.236,0,0,0,0-13.727Z" transform="translate(0 13.955)" fill="#fff" fill-rule="evenodd"/>
      </g>
      <g id="g92" transform="translate(131.862 90.375)">
        <path id="path94" d="M-.007-13.606a.214.214,0,0,0,.227.275H1a.235.235,0,0,0,.216-.168l.862-5.354h.048l2.168,5.51a.214.214,0,0,0,.2.132h.216a.2.2,0,0,0,.2-.132l2.156-5.51h.037L8-13.5a.249.249,0,0,0,.228.168H9a.2.2,0,0,0,.215-.275l-1.473-8.05a.241.241,0,0,0-.216-.179H7.337a.228.228,0,0,0-.2.132L4.642-15.583H4.593L2.089-21.7a.242.242,0,0,0-.2-.132H1.695a.242.242,0,0,0-.216.179Z" transform="translate(0.011 21.836)" fill="#fff" fill-rule="evenodd"/>
      </g>
      <g id="g96" transform="translate(0)">
        <path id="path98" d="M-37.382,0A22.73,22.73,0,0,1-14.77,22.847,22.844,22.844,0,0,1-29.69,44.337c-7.718,2.822-13.517,2.87-20.143,9.869A24.018,24.018,0,0,0-56.2,66.78a1.9,1.9,0,1,1-3.79,0V22.847A22.732,22.732,0,0,1-37.382,0" transform="translate(59.993)" fill="#3bb73e" fill-rule="evenodd"/>
      </g>
    </g>
  </g>
</svg>
