<svg xmlns="http://www.w3.org/2000/svg" width="1028" height="262" viewBox="0 0 1028 262"><defs><style>.a{fill:#65e65c;}.b{fill:#fff;}.c{fill:#230c4b;}</style></defs><g transform="translate(-2097 4004)"><path class="a" d="M0,0H502a0,0,0,0,1,0,0V63a30,30,0,0,1-30,30H30A30,30,0,0,1,0,63V0A0,0,0,0,1,0,0Z" transform="translate(2572 -3835)"/><path class="b" d="M60,0h968a0,0,0,0,1,0,0V109a60,60,0,0,1-60,60H0a0,0,0,0,1,0,0V60A60,60,0,0,1,60,0Z" transform="translate(2097 -4004)"/><path class="c" d="M-336.158-94.43-364.354,0H-385.9l-16.891-63.973L-419.682,0h-21.812l-28.2-94.43h24.206l15.694,63.973L-412.9-94.43h20.748l16.891,63.84L-359.7-94.43Zm1.6,94.43,37.373-94.43h24.605L-235.211,0h-23.94l-6.65-18.354H-304.77L-311.42,0Zm36.841-37.772h24.871l-12.5-34.447ZM-217.522,0V-94.43H-197.7l40.7,57.722V-94.43H-134.8V0h-19.817l-40.7-57.722V0Zm106.666,0V-94.43h38.7a57.917,57.917,0,0,1,20.216,3.392A46.889,46.889,0,0,1-36.043-81.4,42.964,42.964,0,0,1-25.669-66.5a48.675,48.675,0,0,1,3.658,19.152A48.675,48.675,0,0,1-25.669-28.2,43.642,43.642,0,0,1-36.043-13.234,47.056,47.056,0,0,1-52-3.458,57.859,57.859,0,0,1-72.419,0Zm23.142-20.482h14.1a31.126,31.126,0,0,0,14.7-3.258,23.19,23.19,0,0,0,9.576-9.243,28.4,28.4,0,0,0,3.391-14.231,28.4,28.4,0,0,0-3.391-14.231,23.19,23.19,0,0,0-9.576-9.244,31.126,31.126,0,0,0-14.7-3.258h-14.1ZM-.865,0V-94.43H60.182v19.285H21.745v17.29H55.66V-38.57H21.745v19.285H61.512V0ZM84.122,0V-94.43h32.053q11.97,0,20.615,3.724A29.522,29.522,0,0,1,150.09-80a29.152,29.152,0,0,1,4.655,16.559A27.823,27.823,0,0,1,152.817-53.2a32.38,32.38,0,0,1-5.387,9.044,31.993,31.993,0,0,1-8.113,6.916L160.2,0h-25.27L119.367-31.122q-2.128.133-4.389.133a54.422,54.422,0,0,1-8.113-.665V0Zm22.743-75.145v24.472q2.261.4,4.522.6t4.788.2q7.182,0,11.238-3.391a11.56,11.56,0,0,0,4.057-9.376q0-5.985-4.123-9.244t-11.571-3.258ZM208.079,2A41.86,41.86,0,0,1,191.72-1.131a33.585,33.585,0,0,1-12.5-8.911,31.413,31.413,0,0,1-6.916-13.9L193.715-28.2a15.173,15.173,0,0,0,5.453,7.847,15.152,15.152,0,0,0,9.044,2.66,14.228,14.228,0,0,0,8.778-2.594A8.03,8.03,0,0,0,220.448-27a7.3,7.3,0,0,0-3.258-6.118q-3.258-2.394-10.973-4.123l-3.591-.8q-14.364-3.192-21.147-10.507A24.915,24.915,0,0,1,174.7-66.1a28.257,28.257,0,0,1,2.594-12.17,29.269,29.269,0,0,1,7.182-9.576,33.236,33.236,0,0,1,10.84-6.317,39.2,39.2,0,0,1,13.433-2.261,37.737,37.737,0,0,1,15.428,3.059,30.99,30.99,0,0,1,11.571,8.712,31.545,31.545,0,0,1,6.384,13.5L221.113-66.9a15.492,15.492,0,0,0-4.921-7.382,12.259,12.259,0,0,0-7.714-2.46,12.137,12.137,0,0,0-7.714,2.394A7.566,7.566,0,0,0,197.7-68.1a6.384,6.384,0,0,0,1.8,4.721,13.147,13.147,0,0,0,4.988,2.926,67.666,67.666,0,0,0,7.182,2.062l3.458.8q14.364,3.325,21.413,10.374T243.59-29.26a29.593,29.593,0,0,1-2.66,12.635,29.65,29.65,0,0,1-7.448,9.908A33.881,33.881,0,0,1,222.243-.266,42.565,42.565,0,0,1,208.079,2Zm103.341.665A53.136,53.136,0,0,1,295.327.266a47.256,47.256,0,0,1-13.7-6.85,48.445,48.445,0,0,1-10.64-10.64,47.242,47.242,0,0,1-6.916-13.766,53.137,53.137,0,0,1-2.394-16.093,53.782,53.782,0,0,1,2.394-16.16,47.067,47.067,0,0,1,6.916-13.832,47.8,47.8,0,0,1,10.706-10.64A49.54,49.54,0,0,1,295.46-94.63a52.253,52.253,0,0,1,16.226-2.46A53.136,53.136,0,0,1,327.779-94.7a47.256,47.256,0,0,1,13.7,6.849,48.445,48.445,0,0,1,10.64,10.64,47.241,47.241,0,0,1,6.916,13.765,53.138,53.138,0,0,1,2.394,16.093,53.783,53.783,0,0,1-2.394,16.159,47.066,47.066,0,0,1-6.916,13.832,47.8,47.8,0,0,1-10.707,10.64A49.54,49.54,0,0,1,327.646.2,52.253,52.253,0,0,1,311.419,2.66Zm.133-21.28a25.252,25.252,0,0,0,10.374-2.128,24.078,24.078,0,0,0,8.246-5.985,28.018,28.018,0,0,0,5.387-9.044,32.6,32.6,0,0,0,1.928-11.438,32.6,32.6,0,0,0-1.928-11.438,28.018,28.018,0,0,0-5.387-9.044,24.078,24.078,0,0,0-8.246-5.985,25.252,25.252,0,0,0-10.374-2.128,25.251,25.251,0,0,0-10.374,2.128,24.078,24.078,0,0,0-8.246,5.985,28.018,28.018,0,0,0-5.386,9.044,32.594,32.594,0,0,0-1.928,11.438,32.594,32.594,0,0,0,1.928,11.438,28.018,28.018,0,0,0,5.386,9.044,24.078,24.078,0,0,0,8.246,5.985A25.252,25.252,0,0,0,311.553-18.62ZM382.575,0V-94.43h19.817l40.7,57.722V-94.43H465.3V0H445.484l-40.7-57.722V0Z" transform="translate(2609 -3866)"/><path class="b" d="M-98.594,22.112a30.21,30.21,0,0,1-9.3-1.407,27.432,27.432,0,0,1-7.932-4.025,26.715,26.715,0,0,1-6.1-6.252,29.551,29.551,0,0,1-3.947-8.088,31.222,31.222,0,0,1-1.407-9.456,31.6,31.6,0,0,1,1.407-9.5,28.8,28.8,0,0,1,3.986-8.128,27.405,27.405,0,0,1,6.135-6.252,28.194,28.194,0,0,1,7.932-4.064A29.714,29.714,0,0,1-98.438-36.5a30.21,30.21,0,0,1,9.3,1.407,27.432,27.432,0,0,1,7.932,4.025,26.715,26.715,0,0,1,6.1,6.252,29.553,29.553,0,0,1,3.947,8.088,31.222,31.222,0,0,1,1.407,9.456,31.6,31.6,0,0,1-1.407,9.5,28.8,28.8,0,0,1-3.986,8.128A27.4,27.4,0,0,1-81.284,16.6a28.194,28.194,0,0,1-7.932,4.064A29.714,29.714,0,0,1-98.594,22.112Zm.078-10.706a16.309,16.309,0,0,0,6.682-1.368A15.368,15.368,0,0,0-86.52,6.17a18.225,18.225,0,0,0,3.478-5.9,21.47,21.47,0,0,0,1.25-7.463,21.47,21.47,0,0,0-1.25-7.463,18.225,18.225,0,0,0-3.478-5.9,15.369,15.369,0,0,0-5.314-3.868,16.309,16.309,0,0,0-6.682-1.368,16.308,16.308,0,0,0-6.682,1.368,15.369,15.369,0,0,0-5.314,3.868,18.226,18.226,0,0,0-3.478,5.9,21.47,21.47,0,0,0-1.25,7.463A21.47,21.47,0,0,0-113.99.269a18.226,18.226,0,0,0,3.478,5.9,15.369,15.369,0,0,0,5.314,3.868A16.308,16.308,0,0,0-98.516,11.406Zm43.373,9.143V-34.937H-43.5v45.17h22.663V20.549Zm48.765,0V-34.937H5.267V20.549Zm45.327,0-21.1-55.486H30.587L45.513,7.654,60.362-34.937H72.631l-21.1,55.486Zm46.264,0V-34.937H119.99v9.925H96.467V-12.9h21.022v9.925H96.467v13.6h24.3v9.925Zm51.11,0V-34.937h11.644V20.549Zm28.056,0V-34.937H182.2a29.447,29.447,0,0,1,11.761,2.149,16.881,16.881,0,0,1,7.62,6.174,16.837,16.837,0,0,1,2.657,9.5,16.367,16.367,0,0,1-1.172,6.135,18.108,18.108,0,0,1-3.282,5.314,17.746,17.746,0,0,1-5.08,3.947l12.582,22.273H194.466L184.541,1.324q-1.485.078-3.2.078a35.266,35.266,0,0,1-5.47-.469V20.549ZM175.867-25.09V-8.757q1.485.234,2.97.352t3.126.117q5,0,7.737-2.227a7.566,7.566,0,0,0,2.735-6.213A7.455,7.455,0,0,0,189.7-22.9q-2.735-2.188-7.737-2.188Zm40.247,45.639,22.038-55.486H250.5l22.116,55.486H260.659L256.126,8.358H232.134L227.6,20.549ZM235.807-1.489h16.646l-8.362-22.116Z" transform="translate(2750.275 -3781.5)"/></g></svg>