<svg xmlns="http://www.w3.org/2000/svg" width="78.046" height="82.823" viewBox="0 0 78.046 82.823">
  <g id="logoluiz" transform="translate(0.011 0.008)">
    <path id="path8" d="M109.676,220.49A30.978,30.978,0,0,1,99.2,228.835a42.718,42.718,0,0,1-14.288,4Q74.79,233.959,68.6,230.479a13.206,13.206,0,0,1-6.989-10.758,15.623,15.623,0,0,1,4.449-12.961,22.08,22.08,0,0,1,14.135-6.513,35.385,35.385,0,0,1,11.491.689c21.01,4.679,22.053,12.187,35.567,15.977a37.821,37.821,0,0,0,12.286,1.37l-1.418,8.374-.675.075A42.663,42.663,0,0,1,123.167,226,45.768,45.768,0,0,1,109.676,220.49Zm-10.7-5.8a30.043,30.043,0,0,0-8.924-3.509,27.924,27.924,0,0,0-9.214-.549,13.069,13.069,0,0,0-7.008,2.627,5.621,5.621,0,0,0-2.265,5.088,5.492,5.492,0,0,0,3.482,4.592,15.984,15.984,0,0,0,8.353.855,21.485,21.485,0,0,0,8.556-2.708,25.1,25.1,0,0,0,7.014-6.393Z" transform="translate(-61.503 -150.292)" fill="#fff" fill-rule="evenodd"/>
    <path id="path10" d="M85.4,225.558A24.065,24.065,0,0,1,72.439,224.4a12.162,12.162,0,0,1-6.846-7.6,10.6,10.6,0,0,1-.368-6.8,5.8,5.8,0,0,1,3.811-3.869,13.8,13.8,0,0,0,6.15,6.486,18.516,18.516,0,0,0,9.891,1.393q-.489-13.224,3.892-21.472a20.432,20.432,0,0,1,13.046-10.661,16.3,16.3,0,0,1,11.413.34,13.071,13.071,0,0,1,6.687,8.142,19.975,19.975,0,0,1-2.217,17.66c-7.931,12.839-18.764,16.008-32.5,17.547ZM99.173,209.6a23.444,23.444,0,0,0,9.256-8.939c2.083-3.687,2.671-6.848,1.774-9.508a4.238,4.238,0,0,0-2.018-2.554,4.329,4.329,0,0,0-3.227-.236c-2.443.675-4.14,2.836-5.138,6.513a42.848,42.848,0,0,0-.648,14.723Z" transform="translate(-55.473 -181.013)" fill="#fff" fill-rule="evenodd"/>
  </g>
</svg>
