<svg xmlns="http://www.w3.org/2000/svg" width="75" height="75" viewBox="0 0 75 75"><defs><style>.a{fill:#fff;}</style></defs><g transform="translate(-3.375 -3.375)"><path class="a" d="M40.875,10.947a29.915,29.915,0,1,1-21.166,8.762,29.8,29.8,0,0,1,21.166-8.762m0-7.572a37.5,37.5,0,1,0,37.5,37.5,37.494,37.494,0,0,0-37.5-37.5Z"/><path class="a" d="M37.874,34.07l-3.8,3.8-9.79-9.79-9.79,9.79-3.8-3.8,9.79-9.79-9.79-9.79,3.8-3.8,9.79,9.79,9.79-9.79,3.8,3.8-9.79,9.79Z" transform="translate(16.594 16.594)"/></g></svg>